<svg version="1.1" xmlns="http://www.w3.org/2000/svg" viewBox="0 0 453.8711401473223 467.53594343566306" width="1361.6134204419668" height="1402.6078303069892">
  <!-- svg-source:excalidraw -->
  
  <defs>
    <style class="style-fonts">
      @font-face {
        font-family: "Virgil";
        src: url("https://excalidraw.com/Virgil.woff2");
      }
      @font-face {
        font-family: "Cascadia";
        src: url("https://excalidraw.com/Cascadia.woff2");
      }
    </style>
  </defs>
  <rect x="0" y="0" width="453.8711401473223" height="467.53594343566306" fill="#ffffff"></rect><g stroke-linecap="round" transform="translate(266.7407983292403 52.26884356851531) rotate(0 32.2305761824785 32.199712367130076)"><path d="M0 0 C0 0, 0 0, 0 0 M0 0 C0 0, 0 0, 0 0 M0.13 12.04 C2.98 8.76, 5.83 5.49, 10.63 -0.03 M0.13 12.04 C3.55 8.11, 6.97 4.17, 10.63 -0.03 M0.27 24.08 C6.68 16.71, 13.08 9.34, 21.26 -0.07 M0.27 24.08 C7.14 16.17, 14.02 8.26, 21.26 -0.07 M-0.26 36.88 C6.71 28.87, 13.67 20.86, 31.89 -0.1 M-0.26 36.88 C8.43 26.89, 17.11 16.9, 31.89 -0.1 M-0.12 48.92 C16.44 29.87, 32.99 10.82, 42.52 -0.14 M-0.12 48.92 C14.78 31.77, 29.69 14.62, 42.52 -0.14 M0.01 60.96 C14.45 44.35, 28.89 27.74, 53.15 -0.17 M0.01 60.96 C16.79 41.66, 33.57 22.35, 53.15 -0.17 M4.08 68.47 C27.51 41.52, 50.93 14.57, 63.78 -0.21 M4.08 68.47 C25.93 43.33, 47.78 18.19, 63.78 -0.21 M14.71 68.44 C34.37 45.82, 54.03 23.2, 69.82 5.04 M14.71 68.44 C27.87 53.29, 41.04 38.15, 69.82 5.04 M25.34 68.4 C36.85 55.17, 48.35 41.93, 69.95 17.08 M25.34 68.4 C39.07 52.6, 52.8 36.81, 69.95 17.08 M35.97 68.37 C45.6 57.29, 55.23 46.21, 70.08 29.12 M35.97 68.37 C45.35 57.57, 54.73 46.78, 70.08 29.12 M46.6 68.33 C54.06 59.76, 61.51 51.18, 70.22 41.16 M46.6 68.33 C52.86 61.13, 59.12 53.93, 70.22 41.16 M57.23 68.3 C61.59 63.29, 65.94 58.27, 69.69 53.96 M57.23 68.3 C61.21 63.72, 65.18 59.15, 69.69 53.96 M-0.19 64.24 C-0.19 64.24, -0.19 64.24, -0.19 64.24 M-0.19 64.24 C-0.19 64.24, -0.19 64.24, -0.19 64.24 M11.85 64.1 C7.62 60.42, 3.39 56.75, -0.22 53.61 M11.85 64.1 C7.93 60.69, 4 57.28, -0.22 53.61 M24.65 64.63 C17.55 58.46, 10.46 52.29, -0.26 42.98 M24.65 64.63 C15.09 56.31, 5.53 48, -0.26 42.98 M36.69 64.49 C23.1 52.68, 9.52 40.88, -0.29 32.35 M36.69 64.49 C25.34 54.62, 13.98 44.75, -0.29 32.35 M48.73 64.36 C38.37 55.35, 28 46.34, -0.33 21.72 M48.73 64.36 C32.9 50.6, 17.08 36.85, -0.33 21.72 M60.77 64.23 C37.95 44.38, 15.12 24.54, -0.36 11.09 M60.77 64.23 C40.13 46.29, 19.5 28.35, -0.36 11.09 M68.28 60.16 C43.85 38.91, 19.41 17.67, 0.36 1.11 M68.28 60.16 C52.57 46.5, 36.86 32.84, 0.36 1.11 M68.25 49.53 C53.52 36.73, 38.8 23.93, 4.85 -5.58 M68.25 49.53 C46.11 30.28, 23.96 11.03, 4.85 -5.58 M68.21 38.9 C57.21 29.33, 46.2 19.76, 16.89 -5.72 M68.21 38.9 C47.84 21.18, 27.46 3.47, 16.89 -5.72 M68.18 28.27 C56.47 18.09, 44.76 7.91, 28.93 -5.85 M68.18 28.27 C55.08 16.88, 41.98 5.49, 28.93 -5.85 M68.15 17.64 C61.54 11.89, 54.93 6.15, 41.73 -5.33 M68.15 17.64 C61.11 11.52, 54.07 5.4, 41.73 -5.33 M68.11 7.01 C65 4.31, 61.9 1.6, 53.77 -5.46 M68.11 7.01 C63.2 2.74, 58.29 -1.53, 53.77 -5.46" stroke="#fd7e1488" stroke-width="1" fill="none"></path><path d="M0 0 C15.43 0, 30.86 0, 64.46 0 M0 0 C20.07 0, 40.14 0, 64.46 0 M64.46 0 C64.46 18.29, 64.46 36.58, 64.46 64.4 M64.46 0 C64.46 21.5, 64.46 43, 64.46 64.4 M64.46 64.4 C45.48 64.4, 26.49 64.4, 0 64.4 M64.46 64.4 C42.49 64.4, 20.51 64.4, 0 64.4 M0 64.4 C0 51.08, 0 37.77, 0 0 M0 64.4 C0 40.81, 0 17.23, 0 0" stroke="#000000" stroke-width="2" fill="none"></path></g><g stroke-linecap="round"><g transform="translate(291.73200587968745 79.00630935361426) rotate(0 -3.076774100000023 13.448499999999996)"><path d="M0 0 C-4.6 9.2, -9.2 18.41, -12.73 25.47 M0 0 C-4.97 9.94, -9.94 19.88, -12.73 25.47 M-12.73 25.47 C-10.07 25.78, -7.41 26.09, -0.52 26.9 M-12.73 25.47 C-9.16 25.88, -5.6 26.3, -0.52 26.9 M-0.52 26.9 C2.11 21.81, 4.74 16.73, 6.58 13.18 M-0.52 26.9 C1.91 22.2, 4.34 17.51, 6.58 13.18 M6.58 13.18 C4.82 9.27, 3.06 5.37, 0.9 0.56 M6.58 13.18 C5.24 10.21, 3.91 7.25, 0.9 0.56" stroke="#000000" stroke-width="2" fill="none"></path></g></g><mask></mask><g stroke-linecap="round"><g transform="translate(316.2187260796875 94.90330935361419) rotate(0 -12.746280000000013 -11)"><path d="M0 0 C-5.7 -12.35, -11.4 -24.7, -14.96 -32.42 M0 0 C-3.58 -7.75, -7.15 -15.5, -14.96 -32.42 M-14.96 -32.42 C-18.1 -32.55, -21.24 -32.68, -29.17 -33 M-14.96 -32.42 C-19.27 -32.6, -23.58 -32.77, -29.17 -33 M-29.17 -33 C-29.48 -29.94, -29.79 -26.88, -30.18 -23 M-29.17 -33 C-29.57 -29.05, -29.97 -25.1, -30.18 -23 M-30.18 -23 C-28.3 -22.74, -26.43 -22.49, -22.9 -22 M-30.18 -23 C-28.52 -22.77, -26.86 -22.54, -22.9 -22 M-22.9 -22 C-17.59 -10.56, -12.29 0.89, -7.87 10.42 M-22.9 -22 C-18.66 -12.86, -14.42 -3.72, -7.87 10.42 M-7.87 10.42 C-4.03 10.61, -0.2 10.81, 3.69 11 M-7.87 10.42 C-4.44 10.59, -1.01 10.77, 3.69 11 M3.69 11 C3.89 8.99, 4.09 6.98, 4.69 1 M3.69 11 C4.05 7.34, 4.42 3.68, 4.69 1 M4.69 1 C4.44 0.76, 4.2 0.51, 3.69 0 M4.69 1 C4.46 0.77, 4.23 0.54, 3.69 0" stroke="#000000" stroke-width="2" fill="none"></path></g></g><mask></mask><g transform="translate(186.5314483642578 121.63167315329804) rotate(0 112.43992614746094 12)"><text x="112.43992614746094" y="0" font-family="Virgil, Segoe UI Emoji" font-size="20px" fill="#000000" text-anchor="middle" style="white-space: pre;" direction="ltr" dominant-baseline="text-before-edge">Generate tale Lambda</text></g><g stroke-linecap="round" transform="translate(164.6339868058028 364.01885882730437) rotate(0 32.2305761824785 32.199712367130076)"><path d="M0 0 C0 0, 0 0, 0 0 M0 0 C0 0, 0 0, 0 0 M0.13 12.04 C2.46 9.37, 4.78 6.7, 10.63 -0.03 M0.13 12.04 C2.6 9.2, 5.07 6.36, 10.63 -0.03 M0.27 24.08 C5.64 17.9, 11.02 11.72, 21.26 -0.07 M0.27 24.08 C7.13 16.18, 14 8.29, 21.26 -0.07 M-0.26 36.88 C8.58 26.72, 17.41 16.56, 31.89 -0.1 M-0.26 36.88 C7.2 28.3, 14.66 19.72, 31.89 -0.1 M-0.12 48.92 C12.25 34.68, 24.63 20.45, 42.52 -0.14 M-0.12 48.92 C14.44 32.16, 29.01 15.4, 42.52 -0.14 M0.01 60.96 C17.72 40.59, 35.43 20.21, 53.15 -0.17 M0.01 60.96 C13.34 45.62, 26.67 30.29, 53.15 -0.17 M4.08 68.47 C19.56 50.66, 35.04 32.85, 63.78 -0.21 M4.08 68.47 C19.15 51.13, 34.23 33.79, 63.78 -0.21 M14.71 68.44 C34.24 45.97, 53.76 23.51, 69.82 5.04 M14.71 68.44 C27.4 53.84, 40.08 39.25, 69.82 5.04 M25.34 68.4 C40.56 50.89, 55.78 33.38, 69.95 17.08 M25.34 68.4 C41.08 50.29, 56.83 32.18, 69.95 17.08 M35.97 68.37 C49.14 53.22, 62.31 38.07, 70.08 29.12 M35.97 68.37 C48.53 53.92, 61.08 39.48, 70.08 29.12 M46.6 68.33 C53.79 60.07, 60.97 51.8, 70.22 41.16 M46.6 68.33 C53.58 60.3, 60.56 52.27, 70.22 41.16 M57.23 68.3 C61.81 63.04, 66.38 57.77, 69.69 53.96 M57.23 68.3 C61.24 63.68, 65.25 59.07, 69.69 53.96 M-0.19 64.24 C-0.19 64.24, -0.19 64.24, -0.19 64.24 M-0.19 64.24 C-0.19 64.24, -0.19 64.24, -0.19 64.24 M11.85 64.1 C7.91 60.67, 3.96 57.24, -0.22 53.61 M11.85 64.1 C9.34 61.92, 6.82 59.73, -0.22 53.61 M24.65 64.63 C17.16 58.12, 9.68 51.61, -0.26 42.98 M24.65 64.63 C16.79 57.79, 8.93 50.96, -0.26 42.98 M36.69 64.49 C22.44 52.11, 8.2 39.73, -0.29 32.35 M36.69 64.49 C29.17 57.96, 21.65 51.42, -0.29 32.35 M48.73 64.36 C37.75 54.82, 26.77 45.27, -0.33 21.72 M48.73 64.36 C34.26 51.78, 19.8 39.21, -0.33 21.72 M60.77 64.23 C39.2 45.48, 17.63 26.73, -0.36 11.09 M60.77 64.23 C39.83 46.02, 18.88 27.81, -0.36 11.09 M68.28 60.16 C54.15 47.87, 40.02 35.59, 0.36 1.11 M68.28 60.16 C46.48 41.2, 24.67 22.24, 0.36 1.11 M68.25 49.53 C47.27 31.29, 26.29 13.05, 4.85 -5.58 M68.25 49.53 C47.89 31.83, 27.54 14.14, 4.85 -5.58 M68.21 38.9 C48.98 22.17, 29.74 5.45, 16.89 -5.72 M68.21 38.9 C55.72 28.03, 43.22 17.17, 16.89 -5.72 M68.18 28.27 C55.96 17.64, 43.74 7.02, 28.93 -5.85 M68.18 28.27 C56.68 18.27, 45.19 8.28, 28.93 -5.85 M68.15 17.64 C61.9 12.21, 55.66 6.78, 41.73 -5.33 M68.15 17.64 C60.98 11.41, 53.81 5.18, 41.73 -5.33 M68.11 7.01 C62.71 2.31, 57.31 -2.38, 53.77 -5.46 M68.11 7.01 C64.21 3.62, 60.32 0.23, 53.77 -5.46" stroke="#fd7e1488" stroke-width="1" fill="none"></path><path d="M0 0 C15.78 0, 31.56 0, 64.46 0 M0 0 C20.52 0, 41.05 0, 64.46 0 M64.46 0 C64.46 22.71, 64.46 45.43, 64.46 64.4 M64.46 0 C64.46 16.05, 64.46 32.1, 64.46 64.4 M64.46 64.4 C49.34 64.4, 34.22 64.4, 0 64.4 M64.46 64.4 C50.91 64.4, 37.35 64.4, 0 64.4 M0 64.4 C0 44.69, 0 24.99, 0 0 M0 64.4 C0 39.88, 0 15.36, 0 0" stroke="#000000" stroke-width="2" fill="none"></path></g><g stroke-linecap="round"><g transform="translate(189.62519435624995 390.7563246124033) rotate(0 -3.0767740999999944 13.448499999999996)"><path d="M0 0 C-4.75 9.49, -9.49 18.99, -12.73 25.47 M0 0 C-3.4 6.79, -6.79 13.58, -12.73 25.47 M-12.73 25.47 C-8.15 26, -3.57 26.54, -0.52 26.9 M-12.73 25.47 C-8.78 25.93, -4.83 26.39, -0.52 26.9 M-0.52 26.9 C1.53 22.93, 3.58 18.97, 6.58 13.18 M-0.52 26.9 C1.05 23.86, 2.63 20.82, 6.58 13.18 M6.58 13.18 C5.44 10.64, 4.29 8.11, 0.9 0.56 M6.58 13.18 C5.24 10.22, 3.91 7.26, 0.9 0.56" stroke="#000000" stroke-width="2" fill="none"></path></g></g><mask></mask><g stroke-linecap="round"><g transform="translate(214.11191455624999 406.65332461240325) rotate(0 -12.746279999999985 -11)"><path d="M0 0 C-4.97 -10.78, -9.95 -21.56, -14.96 -32.42 M0 0 C-4.1 -8.88, -8.19 -17.76, -14.96 -32.42 M-14.96 -32.42 C-20.52 -32.65, -26.09 -32.87, -29.17 -33 M-14.96 -32.42 C-19.97 -32.62, -24.98 -32.83, -29.17 -33 M-29.17 -33 C-29.52 -29.58, -29.86 -26.15, -30.18 -23 M-29.17 -33 C-29.52 -29.6, -29.86 -26.19, -30.18 -23 M-30.18 -23 C-27.72 -22.66, -25.27 -22.33, -22.9 -22 M-30.18 -23 C-28.39 -22.75, -26.59 -22.51, -22.9 -22 M-22.9 -22 C-17.9 -11.23, -12.91 -0.46, -7.87 10.42 M-22.9 -22 C-18.46 -12.42, -14.02 -2.84, -7.87 10.42 M-7.87 10.42 C-4.44 10.59, -1.01 10.77, 3.69 11 M-7.87 10.42 C-5.29 10.55, -2.71 10.68, 3.69 11 M3.69 11 C3.91 8.82, 4.12 6.64, 4.69 1 M3.69 11 C4.06 7.31, 4.42 3.63, 4.69 1 M4.69 1 C4.38 0.69, 4.07 0.38, 3.69 0 M4.69 1 C4.32 0.63, 3.95 0.26, 3.69 0" stroke="#000000" stroke-width="2" fill="none"></path></g></g><mask></mask><g transform="translate(108.10462188720703 433.3816884120871) rotate(0 88.75994110107422 12)"><text x="88.75994110107422" y="0" font-family="Virgil, Segoe UI Emoji" font-size="20px" fill="#000000" text-anchor="middle" style="white-space: pre;" direction="ltr" dominant-baseline="text-before-edge">Send tale Lambda</text></g><g stroke-linecap="round" transform="translate(266.10801696777344 202.35208979489676) rotate(0 32.540420532226506 32.540420532226506)"><path d="M0 0 C0 0, 0 0, 0 0 M0 0 C0 0, 0 0, 0 0 M0.13 12.04 C2.7 9.08, 5.28 6.13, 10.63 -0.03 M0.13 12.04 C3.96 7.63, 7.79 3.23, 10.63 -0.03 M0.27 24.08 C5.94 17.56, 11.61 11.03, 21.26 -0.07 M0.27 24.08 C7.13 16.19, 13.99 8.29, 21.26 -0.07 M-0.26 36.88 C6.83 28.72, 13.92 20.57, 31.89 -0.1 M-0.26 36.88 C9.88 25.21, 20.02 13.55, 31.89 -0.1 M-0.12 48.92 C13.09 33.72, 26.3 18.52, 42.52 -0.14 M-0.12 48.92 C9.53 37.81, 19.18 26.71, 42.52 -0.14 M0.01 60.96 C20.27 37.65, 40.53 14.35, 53.15 -0.17 M0.01 60.96 C18.86 39.27, 37.71 17.59, 53.15 -0.17 M4.08 68.47 C27.95 41.01, 51.82 13.55, 63.78 -0.21 M4.08 68.47 C16.11 54.63, 28.14 40.79, 63.78 -0.21 M14.71 68.44 C34.07 46.17, 53.42 23.9, 70.47 4.29 M14.71 68.44 C30.29 50.52, 45.87 32.6, 70.47 4.29 M25.34 68.4 C39.37 52.26, 53.41 36.11, 69.95 17.08 M25.34 68.4 C39.58 52.02, 53.82 35.64, 69.95 17.08 M35.97 68.37 C49.53 52.77, 63.08 37.18, 70.08 29.12 M35.97 68.37 C45.4 57.52, 54.83 46.67, 70.08 29.12 M46.6 68.33 C55.77 57.79, 64.93 47.24, 70.22 41.16 M46.6 68.33 C54.56 59.18, 62.52 50.02, 70.22 41.16 M57.23 68.3 C60.78 64.21, 64.33 60.13, 70.35 53.2 M57.23 68.3 C61.48 63.41, 65.73 58.53, 70.35 53.2 M0.23 65.28 C0.23 65.28, 0.23 65.28, 0.23 65.28 M0.23 65.28 C0.23 65.28, 0.23 65.28, 0.23 65.28 M12.27 65.15 C7.86 61.32, 3.45 57.48, 0.19 54.65 M12.27 65.15 C7.56 61.06, 2.86 56.96, 0.19 54.65 M24.31 65.01 C16 57.79, 7.68 50.56, 0.16 44.02 M24.31 65.01 C15.72 57.55, 7.14 50.08, 0.16 44.02 M36.35 64.88 C24.12 54.25, 11.89 43.61, 0.13 33.39 M36.35 64.88 C27.9 57.53, 19.44 50.18, 0.13 33.39 M49.15 65.4 C34.85 52.97, 20.55 40.54, 0.09 22.76 M49.15 65.4 C33.23 51.57, 17.31 37.73, 0.09 22.76 M61.19 65.27 C42.51 49.04, 23.84 32.8, 0.06 12.13 M61.19 65.27 C48.69 54.41, 36.2 43.55, 0.06 12.13 M68.7 61.2 C46.24 41.68, 23.79 22.16, 0.02 1.5 M68.7 61.2 C46.07 41.53, 23.44 21.86, 0.02 1.5 M68.67 50.57 C52.98 36.93, 37.29 23.3, 4.52 -5.19 M68.67 50.57 C53.08 37.02, 37.48 23.46, 4.52 -5.19 M68.63 39.94 C48.76 22.67, 28.89 5.39, 16.56 -5.33 M68.63 39.94 C48.77 22.68, 28.92 5.42, 16.56 -5.33 M68.6 29.31 C52.98 15.74, 37.37 2.17, 28.6 -5.46 M68.6 29.31 C57.39 19.57, 46.18 9.82, 28.6 -5.46 M68.56 18.68 C59.18 10.52, 49.79 2.36, 41.39 -4.94 M68.56 18.68 C58.21 9.68, 47.85 0.68, 41.39 -4.94 M68.53 8.05 C64.94 4.93, 61.35 1.81, 53.43 -5.07 M68.53 8.05 C64.94 4.93, 61.36 1.82, 53.43 -5.07" stroke="#40c05788" stroke-width="1" fill="none"></path><path d="M0 0 C19.38 0, 38.77 0, 65.08 0 M0 0 C24.32 0, 48.65 0, 65.08 0 M65.08 0 C65.08 17.38, 65.08 34.77, 65.08 65.08 M65.08 0 C65.08 19.34, 65.08 38.68, 65.08 65.08 M65.08 65.08 C49.44 65.08, 33.8 65.08, 0 65.08 M65.08 65.08 C42.9 65.08, 20.71 65.08, 0 65.08 M0 65.08 C0 45.93, 0 26.79, 0 0 M0 65.08 C0 45.73, 0 26.39, 0 0" stroke="#000000" stroke-width="2" fill="none"></path></g><g stroke-linecap="round" transform="translate(279.7208721454324 213.41918582041262) rotate(0 19.55281575520837 5.376997727614196)"><path d="M39.11 5.38 C39.11 5.69, 39.01 6, 38.81 6.31 C38.61 6.62, 38.31 6.92, 37.93 7.22 C37.54 7.51, 37.05 7.8, 36.49 8.07 C35.92 8.34, 35.26 8.59, 34.53 8.83 C33.8 9.07, 32.99 9.3, 32.12 9.5 C31.25 9.7, 30.31 9.88, 29.33 10.03 C28.35 10.19, 27.3 10.32, 26.24 10.43 C25.18 10.54, 24.06 10.62, 22.95 10.67 C21.83 10.73, 20.68 10.75, 19.55 10.75 C18.42 10.75, 17.27 10.73, 16.16 10.67 C15.04 10.62, 13.93 10.54, 12.87 10.43 C11.8 10.32, 10.76 10.19, 9.78 10.03 C8.8 9.88, 7.85 9.7, 6.98 9.5 C6.12 9.3, 5.3 9.07, 4.57 8.83 C3.85 8.59, 3.19 8.34, 2.62 8.07 C2.05 7.8, 1.57 7.51, 1.18 7.22 C0.79 6.92, 0.49 6.62, 0.3 6.31 C0.1 6, 0 5.69, 0 5.38 C0 5.07, 0.1 4.75, 0.3 4.44 C0.49 4.14, 0.79 3.83, 1.18 3.54 C1.57 3.25, 2.05 2.96, 2.62 2.69 C3.19 2.42, 3.85 2.16, 4.57 1.92 C5.3 1.68, 6.12 1.46, 6.98 1.26 C7.85 1.06, 8.8 0.88, 9.78 0.72 C10.76 0.56, 11.8 0.43, 12.87 0.32 C13.93 0.22, 15.04 0.14, 16.16 0.08 C17.27 0.03, 18.42 0, 19.55 0 C20.68 0, 21.83 0.03, 22.95 0.08 C24.06 0.14, 25.18 0.22, 26.24 0.32 C27.3 0.43, 28.35 0.56, 29.33 0.72 C30.31 0.88, 31.25 1.06, 32.12 1.26 C32.99 1.46, 33.8 1.68, 34.53 1.92 C35.26 2.16, 35.92 2.42, 36.49 2.69 C37.05 2.96, 37.54 3.25, 37.93 3.54 C38.31 3.83, 38.61 4.14, 38.81 4.44 C39.01 4.75, 39.06 5.22, 39.11 5.38 C39.16 5.53, 39.16 5.22, 39.11 5.38" stroke="#000000" stroke-width="2" fill="none"></path></g><g stroke-linecap="round"><g transform="translate(280.07878856169873 219.29765386929057) rotate(0 19.147886618589723 20.245521196587333)"><path d="M0 0 C0.64 5.36, 2.72 25.82, 3.85 32.15 C4.97 38.48, 4.02 36.6, 6.77 37.99 C9.52 39.38, 16.05 40.42, 20.35 40.49 C24.64 40.56, 30.03 39.82, 32.54 38.4 C35.04 36.98, 34.41 38.33, 35.37 31.94 C36.33 25.56, 37.81 5.41, 38.3 0.1 M0 0 C0.64 5.36, 2.72 25.82, 3.85 32.15 C4.97 38.48, 4.02 36.6, 6.77 37.99 C9.52 39.38, 16.05 40.42, 20.35 40.49 C24.64 40.56, 30.03 39.82, 32.54 38.4 C35.04 36.98, 34.41 38.33, 35.37 31.94 C36.33 25.56, 37.81 5.41, 38.3 0.1" stroke="#000000" stroke-width="2" fill="none"></path></g></g><mask></mask><g stroke-linecap="round" transform="translate(296.84907664763637 229.56015304766356) rotate(0 2.349090576171875 2.349090576171875)"><path d="M4.7 2.35 C4.7 2.49, 4.69 2.62, 4.66 2.76 C4.64 2.89, 4.6 3.02, 4.56 3.15 C4.51 3.28, 4.45 3.41, 4.38 3.52 C4.32 3.64, 4.24 3.75, 4.15 3.86 C4.06 3.96, 3.96 4.06, 3.86 4.15 C3.75 4.24, 3.64 4.32, 3.52 4.38 C3.41 4.45, 3.28 4.51, 3.15 4.56 C3.02 4.6, 2.89 4.64, 2.76 4.66 C2.62 4.69, 2.49 4.7, 2.35 4.7 C2.21 4.7, 2.08 4.69, 1.94 4.66 C1.81 4.64, 1.67 4.6, 1.55 4.56 C1.42 4.51, 1.29 4.45, 1.17 4.38 C1.06 4.32, 0.94 4.24, 0.84 4.15 C0.73 4.06, 0.64 3.96, 0.55 3.86 C0.46 3.75, 0.38 3.64, 0.31 3.52 C0.25 3.41, 0.19 3.28, 0.14 3.15 C0.1 3.02, 0.06 2.89, 0.04 2.76 C0.01 2.62, 0 2.49, 0 2.35 C0 2.21, 0.01 2.08, 0.04 1.94 C0.06 1.81, 0.1 1.67, 0.14 1.55 C0.19 1.42, 0.25 1.29, 0.31 1.17 C0.38 1.06, 0.46 0.94, 0.55 0.84 C0.64 0.73, 0.73 0.64, 0.84 0.55 C0.94 0.46, 1.06 0.38, 1.17 0.31 C1.29 0.25, 1.42 0.19, 1.55 0.14 C1.67 0.1, 1.81 0.06, 1.94 0.04 C2.08 0.01, 2.21 0, 2.35 0 C2.49 0, 2.62 0.01, 2.76 0.04 C2.89 0.06, 3.02 0.1, 3.15 0.14 C3.28 0.19, 3.41 0.25, 3.52 0.31 C3.64 0.38, 3.75 0.46, 3.86 0.55 C3.96 0.64, 4.06 0.73, 4.15 0.84 C4.24 0.94, 4.32 1.06, 4.38 1.17 C4.45 1.29, 4.51 1.42, 4.56 1.55 C4.6 1.67, 4.64 1.81, 4.66 1.94 C4.69 2.08, 4.69 2.28, 4.7 2.35 C4.7 2.42, 4.7 2.28, 4.7 2.35" stroke="none" stroke-width="0" fill="#000"></path><path d="M4.7 2.35 C4.7 2.49, 4.69 2.62, 4.66 2.76 C4.64 2.89, 4.6 3.02, 4.56 3.15 C4.51 3.28, 4.45 3.41, 4.38 3.52 C4.32 3.64, 4.24 3.75, 4.15 3.86 C4.06 3.96, 3.96 4.06, 3.86 4.15 C3.75 4.24, 3.64 4.32, 3.52 4.38 C3.41 4.45, 3.28 4.51, 3.15 4.56 C3.02 4.6, 2.89 4.64, 2.76 4.66 C2.62 4.69, 2.49 4.7, 2.35 4.7 C2.21 4.7, 2.08 4.69, 1.94 4.66 C1.81 4.64, 1.67 4.6, 1.55 4.56 C1.42 4.51, 1.29 4.45, 1.17 4.38 C1.06 4.32, 0.94 4.24, 0.84 4.15 C0.73 4.06, 0.64 3.96, 0.55 3.86 C0.46 3.75, 0.38 3.64, 0.31 3.52 C0.25 3.41, 0.19 3.28, 0.14 3.15 C0.1 3.02, 0.06 2.89, 0.04 2.76 C0.01 2.62, 0 2.49, 0 2.35 C0 2.21, 0.01 2.08, 0.04 1.94 C0.06 1.81, 0.1 1.67, 0.14 1.55 C0.19 1.42, 0.25 1.29, 0.31 1.17 C0.38 1.06, 0.46 0.94, 0.55 0.84 C0.64 0.73, 0.73 0.64, 0.84 0.55 C0.94 0.46, 1.06 0.38, 1.17 0.31 C1.29 0.25, 1.42 0.19, 1.55 0.14 C1.67 0.1, 1.81 0.06, 1.94 0.04 C2.08 0.01, 2.21 0, 2.35 0 C2.49 0, 2.62 0.01, 2.76 0.04 C2.89 0.06, 3.02 0.1, 3.15 0.14 C3.28 0.19, 3.41 0.25, 3.52 0.31 C3.64 0.38, 3.75 0.46, 3.86 0.55 C3.96 0.64, 4.06 0.73, 4.15 0.84 C4.24 0.94, 4.32 1.06, 4.38 1.17 C4.45 1.29, 4.51 1.42, 4.56 1.55 C4.6 1.67, 4.64 1.81, 4.66 1.94 C4.69 2.08, 4.69 2.28, 4.7 2.35 C4.7 2.42, 4.7 2.28, 4.7 2.35" stroke="#000000" stroke-width="1" fill="none"></path></g><g stroke-linecap="round"><g transform="translate(299.33919505583935 232.13314346514403) rotate(0 11.897452059505156 5.825676060660186)"><path d="M0 0 C1.17 1.24, 4.19 5.51, 7.02 7.44 C9.86 9.36, 14.35 11.08, 17 11.53 C19.66 11.98, 21.88 11.08, 22.92 10.14 C23.96 9.2, 24.07 7.29, 23.25 5.89 C22.42 4.49, 18.84 2.45, 17.96 1.76 M0 0 C1.17 1.24, 4.19 5.51, 7.02 7.44 C9.86 9.36, 14.35 11.08, 17 11.53 C19.66 11.98, 21.88 11.08, 22.92 10.14 C23.96 9.2, 24.07 7.29, 23.25 5.89 C22.42 4.49, 18.84 2.45, 17.96 1.76" stroke="#000000" stroke-width="2" fill="none"></path></g></g><mask></mask><g transform="translate(246.1484375 271.5223343976197) rotate(0 52.5 12.5)"><text x="52.5" y="0" font-family="Virgil, Segoe UI Emoji" font-size="20px" fill="#000000" text-anchor="middle" style="white-space: pre;" direction="ltr" dominant-baseline="text-before-edge">S3 Bucket</text></g><g stroke-linecap="round" transform="translate(379.4099877823653 364.5311077099784) rotate(0 32.2305761824785 32.199712367130076)"><path d="M0 0 C0 0, 0 0, 0 0 M0 0 C0 0, 0 0, 0 0 M0.13 12.04 C2.49 9.33, 4.85 6.61, 10.63 -0.03 M0.13 12.04 C3.8 7.82, 7.47 3.6, 10.63 -0.03 M0.27 24.08 C5.89 17.62, 11.5 11.15, 21.26 -0.07 M0.27 24.08 C6.4 17.02, 12.54 9.96, 21.26 -0.07 M-0.26 36.88 C7.56 27.88, 15.38 18.89, 31.89 -0.1 M-0.26 36.88 C8.42 26.9, 17.09 16.92, 31.89 -0.1 M-0.12 48.92 C12 34.98, 24.12 21.03, 42.52 -0.14 M-0.12 48.92 C15.18 31.31, 30.48 13.71, 42.52 -0.14 M0.01 60.96 C18.73 39.42, 37.46 17.88, 53.15 -0.17 M0.01 60.96 C12.55 46.54, 25.08 32.11, 53.15 -0.17 M4.08 68.47 C23.87 45.7, 43.67 22.93, 63.78 -0.21 M4.08 68.47 C26.95 42.16, 49.82 15.85, 63.78 -0.21 M14.71 68.44 C32.46 48.02, 50.21 27.6, 69.82 5.04 M14.71 68.44 C30.93 49.77, 47.15 31.11, 69.82 5.04 M25.34 68.4 C40.25 51.25, 55.15 34.1, 69.95 17.08 M25.34 68.4 C37.92 53.93, 50.49 39.47, 69.95 17.08 M35.97 68.37 C48.99 53.39, 62.01 38.41, 70.08 29.12 M35.97 68.37 C45.6 57.29, 55.23 46.21, 70.08 29.12 M46.6 68.33 C55.48 58.12, 64.36 47.9, 70.22 41.16 M46.6 68.33 C52.81 61.19, 59.01 54.05, 70.22 41.16 M57.23 68.3 C59.97 65.15, 62.71 62, 69.69 53.96 M57.23 68.3 C60.07 65.04, 62.9 61.77, 69.69 53.96 M-0.19 64.24 C-0.19 64.24, -0.19 64.24, -0.19 64.24 M-0.19 64.24 C-0.19 64.24, -0.19 64.24, -0.19 64.24 M11.85 64.1 C7.21 60.07, 2.57 56.03, -0.22 53.61 M11.85 64.1 C7.64 60.44, 3.44 56.79, -0.22 53.61 M24.65 64.63 C16.93 57.91, 9.2 51.2, -0.26 42.98 M24.65 64.63 C15.84 56.97, 7.03 49.31, -0.26 42.98 M36.69 64.49 C26.23 55.4, 15.78 46.32, -0.29 32.35 M36.69 64.49 C27.29 56.32, 17.89 48.15, -0.29 32.35 M48.73 64.36 C30.72 48.71, 12.72 33.06, -0.33 21.72 M48.73 64.36 C32.45 50.2, 16.16 36.05, -0.33 21.72 M60.77 64.23 C37.44 43.94, 14.1 23.66, -0.36 11.09 M60.77 64.23 C39.73 45.94, 18.7 27.65, -0.36 11.09 M68.28 60.16 C41.61 36.97, 14.93 13.78, 0.36 1.11 M68.28 60.16 C45.99 40.77, 23.69 21.39, 0.36 1.11 M68.25 49.53 C55.1 38.1, 41.95 26.67, 4.85 -5.58 M68.25 49.53 C55.01 38.02, 41.77 26.51, 4.85 -5.58 M68.21 38.9 C54.46 26.94, 40.71 14.99, 16.89 -5.72 M68.21 38.9 C57.78 29.82, 47.34 20.75, 16.89 -5.72 M68.18 28.27 C54.63 16.49, 41.08 4.71, 28.93 -5.85 M68.18 28.27 C59.19 20.45, 50.2 12.64, 28.93 -5.85 M68.15 17.64 C61.99 12.29, 55.84 6.94, 41.73 -5.33 M68.15 17.64 C60 10.55, 51.85 3.47, 41.73 -5.33 M68.11 7.01 C64.66 4.01, 61.22 1.01, 53.77 -5.46 M68.11 7.01 C62.71 2.31, 57.32 -2.38, 53.77 -5.46" stroke="#4c6ef588" stroke-width="1" fill="none"></path><path d="M0 0 C22.4 0, 44.79 0, 64.46 0 M0 0 C14.84 0, 29.68 0, 64.46 0 M64.46 0 C64.46 17.87, 64.46 35.74, 64.46 64.4 M64.46 0 C64.46 13.73, 64.46 27.47, 64.46 64.4 M64.46 64.4 C49.93 64.4, 35.4 64.4, 0 64.4 M64.46 64.4 C50.39 64.4, 36.31 64.4, 0 64.4 M0 64.4 C0 39.5, 0 14.61, 0 0 M0 64.4 C0 50.29, 0 36.18, 0 0" stroke="#000000" stroke-width="2" fill="none"></path></g><g stroke-linecap="round" transform="translate(396.1434339559844 412.1825538116327) rotate(0 3.3209228515623863 3.3209228515623863)"><path d="M6.64 3.32 C6.64 3.51, 6.62 3.71, 6.59 3.9 C6.56 4.09, 6.51 4.28, 6.44 4.46 C6.38 4.64, 6.29 4.81, 6.2 4.98 C6.1 5.15, 5.99 5.31, 5.86 5.46 C5.74 5.6, 5.6 5.74, 5.46 5.86 C5.31 5.99, 5.15 6.1, 4.98 6.2 C4.81 6.29, 4.64 6.38, 4.46 6.44 C4.28 6.51, 4.09 6.56, 3.9 6.59 C3.71 6.62, 3.51 6.64, 3.32 6.64 C3.13 6.64, 2.93 6.62, 2.74 6.59 C2.55 6.56, 2.37 6.51, 2.19 6.44 C2 6.38, 1.83 6.29, 1.66 6.2 C1.49 6.1, 1.33 5.99, 1.19 5.86 C1.04 5.74, 0.9 5.6, 0.78 5.46 C0.65 5.31, 0.54 5.15, 0.44 4.98 C0.35 4.81, 0.27 4.64, 0.2 4.46 C0.13 4.28, 0.08 4.09, 0.05 3.9 C0.02 3.71, 0 3.51, 0 3.32 C0 3.13, 0.02 2.93, 0.05 2.74 C0.08 2.55, 0.13 2.37, 0.2 2.19 C0.27 2, 0.35 1.83, 0.44 1.66 C0.54 1.49, 0.65 1.33, 0.78 1.19 C0.9 1.04, 1.04 0.9, 1.19 0.78 C1.33 0.65, 1.49 0.54, 1.66 0.44 C1.83 0.35, 2 0.27, 2.19 0.2 C2.37 0.13, 2.55 0.08, 2.74 0.05 C2.93 0.02, 3.13 0, 3.32 0 C3.51 0, 3.71 0.02, 3.9 0.05 C4.09 0.08, 4.28 0.13, 4.46 0.2 C4.64 0.27, 4.81 0.35, 4.98 0.44 C5.15 0.54, 5.31 0.65, 5.46 0.78 C5.6 0.9, 5.74 1.04, 5.86 1.19 C5.99 1.33, 6.1 1.49, 6.2 1.66 C6.29 1.83, 6.38 2, 6.44 2.19 C6.51 2.37, 6.56 2.55, 6.59 2.74 C6.62 2.93, 6.63 3.22, 6.64 3.32 C6.65 3.42, 6.65 3.22, 6.64 3.32" stroke="#000000" stroke-width="2" fill="none"></path></g><g stroke-linecap="round" transform="translate(407.7618828492134 415.84470017763624) rotate(0 3.3209228515623863 3.3209228515623863)"><path d="M6.64 3.32 C6.64 3.51, 6.62 3.71, 6.59 3.9 C6.56 4.09, 6.51 4.28, 6.44 4.46 C6.38 4.64, 6.29 4.81, 6.2 4.98 C6.1 5.15, 5.99 5.31, 5.86 5.46 C5.74 5.6, 5.6 5.74, 5.46 5.86 C5.31 5.99, 5.15 6.1, 4.98 6.2 C4.81 6.29, 4.64 6.38, 4.46 6.44 C4.28 6.51, 4.09 6.56, 3.9 6.59 C3.71 6.62, 3.51 6.64, 3.32 6.64 C3.13 6.64, 2.93 6.62, 2.74 6.59 C2.55 6.56, 2.37 6.51, 2.19 6.44 C2 6.38, 1.83 6.29, 1.66 6.2 C1.49 6.1, 1.33 5.99, 1.19 5.86 C1.04 5.74, 0.9 5.6, 0.78 5.46 C0.65 5.31, 0.54 5.15, 0.44 4.98 C0.35 4.81, 0.27 4.64, 0.2 4.46 C0.13 4.28, 0.08 4.09, 0.05 3.9 C0.02 3.71, 0 3.51, 0 3.32 C0 3.13, 0.02 2.93, 0.05 2.74 C0.08 2.55, 0.13 2.37, 0.2 2.19 C0.27 2, 0.35 1.83, 0.44 1.66 C0.54 1.49, 0.65 1.33, 0.78 1.19 C0.9 1.04, 1.04 0.9, 1.19 0.78 C1.33 0.65, 1.49 0.54, 1.66 0.44 C1.83 0.35, 2 0.27, 2.19 0.2 C2.37 0.13, 2.55 0.08, 2.74 0.05 C2.93 0.02, 3.13 0, 3.32 0 C3.51 0, 3.71 0.02, 3.9 0.05 C4.09 0.08, 4.28 0.13, 4.46 0.2 C4.64 0.27, 4.81 0.35, 4.98 0.44 C5.15 0.54, 5.31 0.65, 5.46 0.78 C5.6 0.9, 5.74 1.04, 5.86 1.19 C5.99 1.33, 6.1 1.49, 6.2 1.66 C6.29 1.83, 6.38 2, 6.44 2.19 C6.51 2.37, 6.56 2.55, 6.59 2.74 C6.62 2.93, 6.63 3.22, 6.64 3.32 C6.65 3.42, 6.65 3.22, 6.64 3.32" stroke="#000000" stroke-width="2" fill="none"></path></g><g stroke-linecap="round" transform="translate(418.30378255920346 412.664639068498) rotate(0 3.3209228515623863 3.3209228515623863)"><path d="M6.64 3.32 C6.64 3.51, 6.62 3.71, 6.59 3.9 C6.56 4.09, 6.51 4.28, 6.44 4.46 C6.38 4.64, 6.29 4.81, 6.2 4.98 C6.1 5.15, 5.99 5.31, 5.86 5.46 C5.74 5.6, 5.6 5.74, 5.46 5.86 C5.31 5.99, 5.15 6.1, 4.98 6.2 C4.81 6.29, 4.64 6.38, 4.46 6.44 C4.28 6.51, 4.09 6.56, 3.9 6.59 C3.71 6.62, 3.51 6.64, 3.32 6.64 C3.13 6.64, 2.93 6.62, 2.74 6.59 C2.55 6.56, 2.37 6.51, 2.19 6.44 C2 6.38, 1.83 6.29, 1.66 6.2 C1.49 6.1, 1.33 5.99, 1.19 5.86 C1.04 5.74, 0.9 5.6, 0.78 5.46 C0.65 5.31, 0.54 5.15, 0.44 4.98 C0.35 4.81, 0.27 4.64, 0.2 4.46 C0.13 4.28, 0.08 4.09, 0.05 3.9 C0.02 3.71, 0 3.51, 0 3.32 C0 3.13, 0.02 2.93, 0.05 2.74 C0.08 2.55, 0.13 2.37, 0.2 2.19 C0.27 2, 0.35 1.83, 0.44 1.66 C0.54 1.49, 0.65 1.33, 0.78 1.19 C0.9 1.04, 1.04 0.9, 1.19 0.78 C1.33 0.65, 1.49 0.54, 1.66 0.44 C1.83 0.35, 2 0.27, 2.19 0.2 C2.37 0.13, 2.55 0.08, 2.74 0.05 C2.93 0.02, 3.13 0, 3.32 0 C3.51 0, 3.71 0.02, 3.9 0.05 C4.09 0.08, 4.28 0.13, 4.46 0.2 C4.64 0.27, 4.81 0.35, 4.98 0.44 C5.15 0.54, 5.31 0.65, 5.46 0.78 C5.6 0.9, 5.74 1.04, 5.86 1.19 C5.99 1.33, 6.1 1.49, 6.2 1.66 C6.29 1.83, 6.38 2, 6.44 2.19 C6.51 2.37, 6.56 2.55, 6.59 2.74 C6.62 2.93, 6.63 3.22, 6.64 3.32 C6.65 3.42, 6.65 3.22, 6.64 3.32" stroke="#000000" stroke-width="2" fill="none"></path></g><g stroke-linecap="round"><g transform="translate(411.2024900935319 416.49636606749186) rotate(0 0 -6.7716656309185055)"><path d="M0 0 C0 -2.26, 0 -11.29, 0 -13.54 M0 0 C0 -2.26, 0 -11.29, 0 -13.54" stroke="#000000" stroke-width="2" fill="none"></path></g></g><mask></mask><g stroke-linecap="round"><g transform="translate(399.53419582269885 412.7637102243932) rotate(0 0 -1.9612306537050017)"><path d="M0 0 C0 -0.65, 0 -3.27, 0 -3.92 M0 0 C0 -0.65, 0 -3.27, 0 -3.92" stroke="#000000" stroke-width="2" fill="none"></path></g></g><mask></mask><g stroke-linecap="round"><g transform="translate(421.8283778776238 413.53335429695426) rotate(0 0 -1.9612306537050017)"><path d="M0 0 C0 -0.65, 0 -3.27, 0 -3.92 M0 0 C0 -0.65, 0 -3.27, 0 -3.92" stroke="#000000" stroke-width="2" fill="none"></path></g></g><mask></mask><g stroke-linecap="round"><g transform="translate(399.05677143231037 408.30922118112835) rotate(0 11.636404696377895 0.0214362866950637)"><path d="M0 0 C3.88 0.01, 19.39 0.04, 23.27 0.04 M0 0 C3.88 0.01, 19.39 0.04, 23.27 0.04" stroke="#000000" stroke-width="2" fill="none"></path></g></g><mask></mask><g stroke-linecap="round" transform="translate(395.5699568756097 382.06653632493703) rotate(0 15.772741699218841 10.285629139817246)"><path d="M0 0 C9.89 0, 19.78 0, 31.55 0 M0 0 C6.32 0, 12.64 0, 31.55 0 M31.55 0 C31.55 7.05, 31.55 14.1, 31.55 20.57 M31.55 0 C31.55 4.48, 31.55 8.96, 31.55 20.57 M31.55 20.57 C20.04 20.57, 8.53 20.57, 0 20.57 M31.55 20.57 C19.49 20.57, 7.44 20.57, 0 20.57 M0 20.57 C0 15.28, 0 9.99, 0 0 M0 20.57 C0 13.95, 0 7.33, 0 0" stroke="#000000" stroke-width="2" fill="none"></path></g><g stroke-linecap="round"><g transform="translate(395.77393636779766 382.1676896241031) rotate(0 15.657971191406432 6.5171951293945085)"><path d="M0 0 C4.3 3.68, 8.59 7.36, 15.23 13.03 M0 0 C5.09 4.36, 10.18 8.72, 15.23 13.03 M15.23 13.03 C19.07 9.92, 22.91 6.81, 31.32 0.01 M15.23 13.03 C20.07 9.11, 24.91 5.19, 31.32 0.01" stroke="#000000" stroke-width="2" fill="none"></path></g></g><mask></mask><g stroke-linecap="round"><g transform="translate(396.2233504302974 402.933949389728) rotate(0 5.952679443359557 -4.953874206543048)"><path d="M0 0 C4.27 -3.55, 8.54 -7.11, 11.91 -9.91 M0 0 C4.15 -3.45, 8.3 -6.91, 11.91 -9.91" stroke="#000000" stroke-width="2" fill="none"></path></g></g><mask></mask><g stroke-linecap="round"><g transform="translate(427.01328573303203 402.3411927368959) rotate(0 -6.050592041015534 -5.064797973632835)"><path d="M0 0 C-2.79 -2.33, -5.57 -4.66, -12.1 -10.13 M0 0 C-3.36 -2.81, -6.72 -5.62, -12.1 -10.13" stroke="#000000" stroke-width="2" fill="none"></path></g></g><mask></mask><g stroke-linecap="round"><g transform="translate(394.29188070373516 411.14843608406386) rotate(0 17.325990914498163 -19.59834572632286)"><path d="M0 0 C-0.62 -0.85, -2.65 -2.67, -3.73 -5.11 C-4.82 -7.56, -6.36 -11.12, -6.5 -14.65 C-6.65 -18.18, -5.96 -22.99, -4.6 -26.27 C-3.25 -29.56, -0.8 -32.29, 1.62 -34.37 C4.05 -36.45, 7.03 -37.78, 9.93 -38.74 C12.83 -39.7, 15.95 -40.33, 19.01 -40.14 C22.08 -39.95, 25.57 -38.93, 28.32 -37.59 C31.07 -36.24, 33.58 -34.33, 35.51 -32.07 C37.43 -29.81, 38.93 -27.07, 39.86 -24.01 C40.8 -20.96, 41.39 -17, 41.1 -13.74 C40.81 -10.48, 39.37 -6.91, 38.11 -4.46 C36.85 -2, 34.28 0.07, 33.51 0.98 M0 0 C-0.62 -0.85, -2.65 -2.67, -3.73 -5.11 C-4.82 -7.56, -6.36 -11.12, -6.5 -14.65 C-6.65 -18.18, -5.96 -22.99, -4.6 -26.27 C-3.25 -29.56, -0.8 -32.29, 1.62 -34.37 C4.05 -36.45, 7.03 -37.78, 9.93 -38.74 C12.83 -39.7, 15.95 -40.33, 19.01 -40.14 C22.08 -39.95, 25.57 -38.93, 28.32 -37.59 C31.07 -36.24, 33.58 -34.33, 35.51 -32.07 C37.43 -29.81, 38.93 -27.07, 39.86 -24.01 C40.8 -20.96, 41.39 -17, 41.1 -13.74 C40.81 -10.48, 39.37 -6.91, 38.11 -4.46 C36.85 -2, 34.28 0.07, 33.51 0.98" stroke="#000000" stroke-width="2" fill="none"></path></g></g><mask></mask><g transform="translate(392.140563964844 432.53594343566306) rotate(0 19.5 12.5)"><text x="0" y="0" font-family="Virgil, Segoe UI Emoji" font-size="20px" fill="#000000" text-anchor="start" style="white-space: pre;" direction="ltr" dominant-baseline="text-before-edge">SES</text></g><g stroke-linecap="round"><g transform="translate(231.84896850585938 289.017961607977) rotate(0 -20.937138570458643 25.31693448349833)"><path d="M0.67 -0.91 C-6.41 7.66, -34.43 43.01, -41.33 51.54 M-0.44 1.23 C-7.82 9.48, -35.72 41.65, -42.55 50.04" stroke="#000000" stroke-width="1" fill="none"></path></g><g transform="translate(231.84896850585938 289.017961607977) rotate(0 -20.937138570458643 25.31693448349833)"><path d="M-33.71 21.02 C-34.29 33.32, -40.5 42.54, -41.29 50.63 M-32.06 22.66 C-36.19 32.93, -40.26 42.57, -42.7 49.49" stroke="#000000" stroke-width="1" fill="none"></path></g><g transform="translate(231.84896850585938 289.017961607977) rotate(0 -20.937138570458643 25.31693448349833)"><path d="M-18.03 34.26 C-24.85 41.39, -37.29 45.35, -41.29 50.63 M-16.38 35.9 C-26.33 41.28, -36.24 45.98, -42.7 49.49" stroke="#000000" stroke-width="1" fill="none"></path></g></g><mask></mask><g stroke-linecap="round"><g transform="translate(261.69012451171875 390.197649107977) rotate(0 43.244799273461126 -0.11143029146879257)"><path d="M-0.62 0.78 C13.95 0.9, 72.71 0.63, 87.11 0.52 M1.26 0.14 C15.78 -0.03, 72.8 -0.7, 86.73 -1.03" stroke="#000000" stroke-width="1" fill="none"></path></g><g transform="translate(261.69012451171875 390.197649107977) rotate(0 43.244799273461126 -0.11143029146879257)"><path d="M60.02 11.52 C68.33 6.44, 75.46 4.77, 86.22 0.91 M58.77 9.57 C68.39 6.52, 77.84 1.73, 85.83 -0.24" stroke="#000000" stroke-width="1" fill="none"></path></g><g transform="translate(261.69012451171875 390.197649107977) rotate(0 43.244799273461126 -0.11143029146879257)"><path d="M59.67 -9 C68.04 -8.38, 75.28 -4.35, 86.22 0.91 M58.42 -10.95 C68.25 -7.15, 77.81 -5.08, 85.83 -0.24" stroke="#000000" stroke-width="1" fill="none"></path></g></g><mask></mask><g stroke-linecap="round"><g transform="translate(301.66668701171875 158.9059773550473) rotate(0 -0.17617516395125676 15.657668267348782)"><path d="M0.46 1.02 C0.4 6.03, 0.64 24.6, 0.4 29.18 M-0.75 0.5 C-1.01 5.81, -0.77 25.98, -0.42 30.81" stroke="#000000" stroke-width="1" fill="none"></path></g><g transform="translate(301.66668701171875 158.9059773550473) rotate(0 -0.17617516395125676 15.657668267348782)"><path d="M-4.64 17.67 C-3.76 20.9, -2.63 26.84, -1.38 31.01 M-5.47 17.11 C-4.82 20.98, -2.74 24.29, -0.35 30.46" stroke="#000000" stroke-width="1" fill="none"></path></g><g transform="translate(301.66668701171875 158.9059773550473) rotate(0 -0.17617516395125676 15.657668267348782)"><path d="M5.27 17.31 C2.55 20.71, 0.07 26.78, -1.38 31.01 M4.44 16.75 C2.69 20.63, 2.38 24.04, -0.35 30.46" stroke="#000000" stroke-width="1" fill="none"></path></g></g><mask></mask><g stroke-linecap="round" transform="translate(35.64955444335965 10) rotate(0 32.350445556640494 32.350445556640494)"><path d="M0 0 C0 0, 0 0, 0 0 M0 0 C0 0, 0 0, 0 0 M0.13 12.04 C3.53 8.13, 6.93 4.22, 10.63 -0.03 M0.13 12.04 C3.47 8.2, 6.81 4.36, 10.63 -0.03 M0.27 24.08 C8.32 14.81, 16.38 5.55, 21.26 -0.07 M0.27 24.08 C6.16 17.3, 12.05 10.52, 21.26 -0.07 M-0.26 36.88 C8.04 27.34, 16.33 17.8, 31.89 -0.1 M-0.26 36.88 C9.69 25.43, 19.65 13.98, 31.89 -0.1 M-0.12 48.92 C12.09 34.86, 24.31 20.81, 42.52 -0.14 M-0.12 48.92 C16.13 30.23, 32.38 11.53, 42.52 -0.14 M0.01 60.96 C10.78 48.57, 21.54 36.19, 53.15 -0.17 M0.01 60.96 C15.98 42.59, 31.95 24.22, 53.15 -0.17 M4.08 68.47 C24.32 45.19, 44.55 21.91, 63.78 -0.21 M4.08 68.47 C27.71 41.29, 51.33 14.11, 63.78 -0.21 M14.71 68.44 C27.6 53.61, 40.49 38.78, 69.82 5.04 M14.71 68.44 C26.32 55.08, 37.93 41.72, 69.82 5.04 M25.34 68.4 C35.94 56.2, 46.55 44.01, 69.95 17.08 M25.34 68.4 C43.15 47.91, 60.97 27.42, 69.95 17.08 M35.97 68.37 C46.84 55.86, 57.71 43.35, 70.08 29.12 M35.97 68.37 C43.45 59.76, 50.93 51.16, 70.08 29.12 M46.6 68.33 C52.97 61, 59.34 53.67, 70.22 41.16 M46.6 68.33 C51.93 62.2, 57.26 56.07, 70.22 41.16 M57.23 68.3 C61.36 63.55, 65.48 58.81, 70.35 53.2 M57.23 68.3 C62.02 62.79, 66.81 57.28, 70.35 53.2 M-0.34 64.41 C-0.34 64.41, -0.34 64.41, -0.34 64.41 M-0.34 64.41 C-0.34 64.41, -0.34 64.41, -0.34 64.41 M12.46 64.93 C7.72 60.81, 2.98 56.69, -0.37 53.78 M12.46 64.93 C8.02 61.07, 3.59 57.22, -0.37 53.78 M24.5 64.8 C18.8 59.84, 13.1 54.89, 0.35 43.8 M24.5 64.8 C17.74 58.92, 10.99 53.05, 0.35 43.8 M36.54 64.66 C24.88 54.53, 13.22 44.39, 0.31 33.17 M36.54 64.66 C24.99 54.62, 13.43 44.58, 0.31 33.17 M48.58 64.53 C34.21 52.04, 19.84 39.55, 0.28 22.54 M48.58 64.53 C30.61 48.91, 12.64 33.29, 0.28 22.54 M60.62 64.4 C42.41 48.57, 24.21 32.74, 0.24 11.91 M60.62 64.4 C42.43 48.58, 24.24 32.77, 0.24 11.91 M68.13 60.33 C44.55 39.82, 20.96 19.32, 0.21 1.28 M68.13 60.33 C53.42 47.54, 38.71 34.75, 0.21 1.28 M68.1 49.7 C47.28 31.6, 26.46 13.5, 4.7 -5.41 M68.1 49.7 C44.71 29.36, 21.32 9.03, 4.7 -5.41 M68.06 39.07 C56.49 29, 44.91 18.94, 16.74 -5.54 M68.06 39.07 C55.52 28.17, 42.98 17.26, 16.74 -5.54 M68.03 28.44 C55.75 17.76, 43.47 7.09, 28.79 -5.68 M68.03 28.44 C57.93 19.65, 47.82 10.87, 28.79 -5.68 M68 17.81 C58.39 9.46, 48.79 1.12, 41.58 -5.15 M68 17.81 C61.51 12.17, 55.03 6.54, 41.58 -5.15 M68.72 7.83 C64.85 4.47, 60.98 1.11, 53.62 -5.29 M68.72 7.83 C63.26 3.09, 57.8 -1.66, 53.62 -5.29" stroke="#e6498088" stroke-width="1" fill="none"></path><path d="M0 0 C17.33 0, 34.66 0, 64.7 0 M0 0 C20.1 0, 40.21 0, 64.7 0 M64.7 0 C64.7 15.2, 64.7 30.39, 64.7 64.7 M64.7 0 C64.7 22.64, 64.7 45.29, 64.7 64.7 M64.7 64.7 C39.18 64.7, 13.67 64.7, 0 64.7 M64.7 64.7 C43.89 64.7, 23.08 64.7, 0 64.7 M0 64.7 C0 50.83, 0 36.96, 0 0 M0 64.7 C0 47.55, 0 30.4, 0 0" stroke="#000000" stroke-width="2" fill="none"></path></g><g stroke-linecap="round"><g transform="translate(53.799674749033784 42.582034166082394) rotate(0 14.548263240227556 0.04160210811423326)"><path d="M0 0 C2.5 -4.36, 5 -8.71, 7.26 -12.66 M0 0 C2.18 -3.8, 4.36 -7.6, 7.26 -12.66 M7.26 -12.66 C10.83 -12.63, 14.4 -12.61, 21.75 -12.57 M7.26 -12.66 C10.31 -12.64, 13.35 -12.62, 21.75 -12.57 M21.75 -12.57 C24.21 -8.33, 26.68 -4.09, 29.1 0.07 M21.75 -12.57 C24.3 -8.19, 26.84 -3.8, 29.1 0.07 M29.1 0.07 C26.37 4.79, 23.65 9.51, 21.97 12.42 M29.1 0.07 C26.34 4.84, 23.59 9.61, 21.97 12.42 M21.97 12.42 C17.41 12.52, 12.85 12.62, 7.36 12.74 M21.97 12.42 C17.88 12.51, 13.79 12.6, 7.36 12.74 M7.36 12.74 C5.17 8.95, 2.99 5.17, 0 0 M7.36 12.74 C5.46 9.45, 3.56 6.16, 0 0" stroke="#000000" stroke-width="2" fill="none"></path></g></g><mask></mask><g stroke-linecap="round" transform="translate(53.53304460602658 19.394955866177042) rotate(0 3.263524203221152 3.2635242032211593)"><path d="M6.53 3.26 C6.53 3.45, 6.51 3.64, 6.48 3.83 C6.44 4.02, 6.39 4.2, 6.33 4.38 C6.27 4.56, 6.18 4.73, 6.09 4.9 C6 5.06, 5.88 5.22, 5.76 5.36 C5.64 5.51, 5.51 5.64, 5.36 5.76 C5.22 5.88, 5.06 6, 4.9 6.09 C4.73 6.18, 4.56 6.27, 4.38 6.33 C4.2 6.39, 4.02 6.44, 3.83 6.48 C3.64 6.51, 3.45 6.53, 3.26 6.53 C3.07 6.53, 2.88 6.51, 2.7 6.48 C2.51 6.44, 2.32 6.39, 2.15 6.33 C1.97 6.27, 1.8 6.18, 1.63 6.09 C1.47 6, 1.31 5.88, 1.17 5.76 C1.02 5.64, 0.88 5.51, 0.76 5.36 C0.64 5.22, 0.53 5.06, 0.44 4.9 C0.34 4.73, 0.26 4.56, 0.2 4.38 C0.13 4.2, 0.08 4.02, 0.05 3.83 C0.02 3.64, 0 3.45, 0 3.26 C0 3.07, 0.02 2.88, 0.05 2.7 C0.08 2.51, 0.13 2.32, 0.2 2.15 C0.26 1.97, 0.34 1.8, 0.44 1.63 C0.53 1.47, 0.64 1.31, 0.76 1.17 C0.88 1.02, 1.02 0.88, 1.17 0.76 C1.31 0.64, 1.47 0.53, 1.63 0.44 C1.8 0.34, 1.97 0.26, 2.15 0.2 C2.32 0.13, 2.51 0.08, 2.7 0.05 C2.88 0.02, 3.07 0, 3.26 0 C3.45 0, 3.64 0.02, 3.83 0.05 C4.02 0.08, 4.2 0.13, 4.38 0.2 C4.56 0.26, 4.73 0.34, 4.9 0.44 C5.06 0.53, 5.22 0.64, 5.36 0.76 C5.51 0.88, 5.64 1.02, 5.76 1.17 C5.88 1.31, 6 1.47, 6.09 1.63 C6.18 1.8, 6.27 1.97, 6.33 2.15 C6.39 2.32, 6.44 2.51, 6.48 2.7 C6.51 2.88, 6.52 3.17, 6.53 3.26 C6.54 3.36, 6.54 3.17, 6.53 3.26" stroke="#000000" stroke-width="2" fill="none"></path></g><g stroke-linecap="round"><g transform="translate(58.618196102211186 25.55376489524906) rotate(0 1.2150197179200575 2.0826207844146936)"><path d="M0 0 C0.87 1.49, 1.73 2.97, 2.43 4.17 M0 0 C0.49 0.84, 0.98 1.68, 2.43 4.17" stroke="#000000" stroke-width="2" fill="none"></path></g></g><mask></mask><g stroke-linecap="round" transform="translate(76.61084163536498 58.77888684066147) rotate(180 3.263524203221152 3.2635242032211664)"><path d="M6.53 3.26 C6.53 3.45, 6.51 3.64, 6.48 3.83 C6.44 4.02, 6.39 4.2, 6.33 4.38 C6.27 4.56, 6.18 4.73, 6.09 4.9 C6 5.06, 5.88 5.22, 5.76 5.36 C5.64 5.51, 5.51 5.64, 5.36 5.76 C5.22 5.88, 5.06 6, 4.9 6.09 C4.73 6.18, 4.56 6.27, 4.38 6.33 C4.2 6.39, 4.02 6.44, 3.83 6.48 C3.64 6.51, 3.45 6.53, 3.26 6.53 C3.07 6.53, 2.88 6.51, 2.7 6.48 C2.51 6.44, 2.32 6.39, 2.15 6.33 C1.97 6.27, 1.8 6.18, 1.63 6.09 C1.47 6, 1.31 5.88, 1.17 5.76 C1.02 5.64, 0.88 5.51, 0.76 5.36 C0.64 5.22, 0.53 5.06, 0.44 4.9 C0.34 4.73, 0.26 4.56, 0.2 4.38 C0.13 4.2, 0.08 4.02, 0.05 3.83 C0.02 3.64, 0 3.45, 0 3.26 C0 3.07, 0.02 2.88, 0.05 2.7 C0.08 2.51, 0.13 2.32, 0.2 2.15 C0.26 1.97, 0.34 1.8, 0.44 1.63 C0.53 1.47, 0.64 1.31, 0.76 1.17 C0.88 1.02, 1.02 0.88, 1.17 0.76 C1.31 0.64, 1.47 0.53, 1.63 0.44 C1.8 0.34, 1.97 0.26, 2.15 0.2 C2.32 0.13, 2.51 0.08, 2.7 0.05 C2.88 0.02, 3.07 0, 3.26 0 C3.45 0, 3.64 0.02, 3.83 0.05 C4.02 0.08, 4.2 0.13, 4.38 0.2 C4.56 0.26, 4.73 0.34, 4.9 0.44 C5.06 0.53, 5.22 0.64, 5.36 0.76 C5.51 0.88, 5.64 1.02, 5.76 1.17 C5.88 1.31, 6 1.47, 6.09 1.63 C6.18 1.8, 6.27 1.97, 6.33 2.15 C6.39 2.32, 6.44 2.51, 6.48 2.7 C6.51 2.88, 6.52 3.17, 6.53 3.26 C6.54 3.36, 6.54 3.17, 6.53 3.26" stroke="#000000" stroke-width="2" fill="none"></path></g><g stroke-linecap="round"><g transform="translate(75.62269910978102 54.981884649202584) rotate(180 1.2150197179200575 2.0826207844146936)"><path d="M0 0 C0.81 1.39, 1.62 2.77, 2.43 4.17 M0 0 C0.68 1.17, 1.37 2.35, 2.43 4.17" stroke="#000000" stroke-width="2" fill="none"></path></g></g><mask></mask><g stroke-linecap="round" transform="translate(82.23880870915036 28.957253268017666) rotate(0 3.263524203221152 3.2635242032211593)"><path d="M6.53 3.26 C6.53 3.45, 6.51 3.64, 6.48 3.83 C6.44 4.02, 6.39 4.2, 6.33 4.38 C6.27 4.56, 6.18 4.73, 6.09 4.9 C6 5.06, 5.88 5.22, 5.76 5.36 C5.64 5.51, 5.51 5.64, 5.36 5.76 C5.22 5.88, 5.06 6, 4.9 6.09 C4.73 6.18, 4.56 6.27, 4.38 6.33 C4.2 6.39, 4.02 6.44, 3.83 6.48 C3.64 6.51, 3.45 6.53, 3.26 6.53 C3.07 6.53, 2.88 6.51, 2.7 6.48 C2.51 6.44, 2.32 6.39, 2.15 6.33 C1.97 6.27, 1.8 6.18, 1.63 6.09 C1.47 6, 1.31 5.88, 1.17 5.76 C1.02 5.64, 0.88 5.51, 0.76 5.36 C0.64 5.22, 0.53 5.06, 0.44 4.9 C0.34 4.73, 0.26 4.56, 0.2 4.38 C0.13 4.2, 0.08 4.02, 0.05 3.83 C0.02 3.64, 0 3.45, 0 3.26 C0 3.07, 0.02 2.88, 0.05 2.7 C0.08 2.51, 0.13 2.32, 0.2 2.15 C0.26 1.97, 0.34 1.8, 0.44 1.63 C0.53 1.47, 0.64 1.31, 0.76 1.17 C0.88 1.02, 1.02 0.88, 1.17 0.76 C1.31 0.64, 1.47 0.53, 1.63 0.44 C1.8 0.34, 1.97 0.26, 2.15 0.2 C2.32 0.13, 2.51 0.08, 2.7 0.05 C2.88 0.02, 3.07 0, 3.26 0 C3.45 0, 3.64 0.02, 3.83 0.05 C4.02 0.08, 4.2 0.13, 4.38 0.2 C4.56 0.26, 4.73 0.34, 4.9 0.44 C5.06 0.53, 5.22 0.64, 5.36 0.76 C5.51 0.88, 5.64 1.02, 5.76 1.17 C5.88 1.31, 6 1.47, 6.09 1.63 C6.18 1.8, 6.27 1.97, 6.33 2.15 C6.39 2.32, 6.44 2.51, 6.48 2.7 C6.51 2.88, 6.52 3.17, 6.53 3.26 C6.54 3.36, 6.54 3.17, 6.53 3.26" stroke="#000000" stroke-width="2" fill="none"></path></g><g stroke-linecap="round" transform="translate(47.46320759065611 49.360185038838154) rotate(0 3.263524203221152 3.2635242032211593)"><path d="M6.53 3.26 C6.53 3.45, 6.51 3.64, 6.48 3.83 C6.44 4.02, 6.39 4.2, 6.33 4.38 C6.27 4.56, 6.18 4.73, 6.09 4.9 C6 5.06, 5.88 5.22, 5.76 5.36 C5.64 5.51, 5.51 5.64, 5.36 5.76 C5.22 5.88, 5.06 6, 4.9 6.09 C4.73 6.18, 4.56 6.27, 4.38 6.33 C4.2 6.39, 4.02 6.44, 3.83 6.48 C3.64 6.51, 3.45 6.53, 3.26 6.53 C3.07 6.53, 2.88 6.51, 2.7 6.48 C2.51 6.44, 2.32 6.39, 2.15 6.33 C1.97 6.27, 1.8 6.18, 1.63 6.09 C1.47 6, 1.31 5.88, 1.17 5.76 C1.02 5.64, 0.88 5.51, 0.76 5.36 C0.64 5.22, 0.53 5.06, 0.44 4.9 C0.34 4.73, 0.26 4.56, 0.2 4.38 C0.13 4.2, 0.08 4.02, 0.05 3.83 C0.02 3.64, 0 3.45, 0 3.26 C0 3.07, 0.02 2.88, 0.05 2.7 C0.08 2.51, 0.13 2.32, 0.2 2.15 C0.26 1.97, 0.34 1.8, 0.44 1.63 C0.53 1.47, 0.64 1.31, 0.76 1.17 C0.88 1.02, 1.02 0.88, 1.17 0.76 C1.31 0.64, 1.47 0.53, 1.63 0.44 C1.8 0.34, 1.97 0.26, 2.15 0.2 C2.32 0.13, 2.51 0.08, 2.7 0.05 C2.88 0.02, 3.07 0, 3.26 0 C3.45 0, 3.64 0.02, 3.83 0.05 C4.02 0.08, 4.2 0.13, 4.38 0.2 C4.56 0.26, 4.73 0.34, 4.9 0.44 C5.06 0.53, 5.22 0.64, 5.36 0.76 C5.51 0.88, 5.64 1.02, 5.76 1.17 C5.88 1.31, 6 1.47, 6.09 1.63 C6.18 1.8, 6.27 1.97, 6.33 2.15 C6.39 2.32, 6.44 2.51, 6.48 2.7 C6.51 2.88, 6.52 3.17, 6.53 3.26 C6.54 3.36, 6.54 3.17, 6.53 3.26" stroke="#000000" stroke-width="2" fill="none"></path></g><g stroke-linecap="round"><g transform="translate(68.4202518484567 23.79178801163698) rotate(0 7.4405321838152645 2.8707290641610044)"><path d="M0 0 C2.77 -0.01, 5.55 -0.02, 10.97 -0.04 M0 0 C3.22 -0.01, 6.44 -0.02, 10.97 -0.04 M10.97 -0.04 C11.89 1.33, 12.81 2.69, 14.88 5.78 M10.97 -0.04 C12.03 1.53, 13.08 3.11, 14.88 5.78" stroke="#000000" stroke-width="2" fill="none"></path></g></g><mask></mask><g stroke-linecap="round"><g transform="translate(85.21625645264021 52.38600464273077) rotate(0 2.6799406055446013 -8.804549402115619)"><path d="M0 0 C2.03 -3.68, 4.07 -7.36, 5.36 -9.7 M0 0 C1.18 -2.14, 2.36 -4.27, 5.36 -9.7 M5.36 -9.7 C4.47 -11.53, 3.57 -13.37, 1.51 -17.61 M5.36 -9.7 C3.94 -12.62, 2.52 -15.54, 1.51 -17.61" stroke="#000000" stroke-width="2" fill="none"></path></g></g><mask></mask><g stroke-linecap="round"><g transform="translate(52.69868378391266 55.27563970243318) rotate(180 7.4405321838152645 2.8707290641610044)"><path d="M0 0 C3.96 -0.01, 7.91 -0.03, 10.97 -0.04 M0 0 C3.88 -0.01, 7.76 -0.03, 10.97 -0.04 M10.97 -0.04 C11.85 1.27, 12.73 2.58, 14.88 5.78 M10.97 -0.04 C12.4 2.09, 13.84 4.23, 14.88 5.78" stroke="#000000" stroke-width="2" fill="none"></path></g></g><mask></mask><g stroke-linecap="round"><g transform="translate(45.42386233627076 50.03198000389284) rotate(180 2.6799406055446013 -8.804549402115619)"><path d="M0 0 C1.67 -3.01, 3.33 -6.03, 5.36 -9.7 M0 0 C1.26 -2.28, 2.52 -4.56, 5.36 -9.7 M5.36 -9.7 C4.01 -12.47, 2.67 -15.24, 1.51 -17.61 M5.36 -9.7 C3.84 -12.82, 2.32 -15.94, 1.51 -17.61" stroke="#000000" stroke-width="2" fill="none"></path></g></g><mask></mask><g transform="translate(10 78.24942419251647) rotate(0 94.61991119384766 12)"><text x="0" y="0" font-family="Virgil, Segoe UI Emoji" font-size="20px" fill="#000000" text-anchor="start" style="white-space: pre;" direction="ltr" dominant-baseline="text-before-edge">EventBridge trigger</text></g><g stroke-linecap="round"><g transform="translate(153.95053100585938 43.6872273550473) rotate(0 47.37657337212468 16.141841412172653)"><path d="M0.09 0.33 C16.06 5.66, 80.16 27.67, 96.07 32.82 M-1.32 -0.54 C14.42 4.37, 78.33 25.63, 94.86 31.07" stroke="#000000" stroke-width="1" fill="none"></path></g><g transform="translate(153.95053100585938 43.6872273550473) rotate(0 47.37657337212468 16.141841412172653)"><path d="M65.43 31.13 C75.72 29.92, 82.74 32.96, 94.96 31.38 M65.56 32.13 C74.99 31.78, 83.74 31.97, 94.31 30.22" stroke="#000000" stroke-width="1" fill="none"></path></g><g transform="translate(153.95053100585938 43.6872273550473) rotate(0 47.37657337212468 16.141841412172653)"><path d="M71.87 11.65 C80.22 16.73, 85.16 26.06, 94.96 31.38 M72 12.64 C79.46 18.25, 86.22 24.45, 94.31 30.22" stroke="#000000" stroke-width="1" fill="none"></path></g></g><mask></mask></svg>